<?xml version="1.0" encoding="UTF-8" ?>
<!DOCTYPE svg PUBLIC "-//W3C//DTD SVG 1.1//EN" "http://www.w3.org/Graphics/SVG/1.1/DTD/svg11.dtd">
<svg width="299pt" height="285pt" viewBox="0 0 299 285" version="1.1" xmlns="http://www.w3.org/2000/svg">
<g id="#ffffffff">
<path fill="#ffffff" opacity="1.00" d=" M 56.62 113.54 C 65.05 100.48 82.94 95.42 97.35 100.57 C 100.99 101.96 104.33 104.07 107.12 106.80 C 107.50 107.03 108.26 107.49 108.64 107.72 L 108.45 108.52 L 109.18 108.50 C 111.33 111.42 113.41 114.39 115.36 117.44 C 116.35 120.91 118.09 124.15 118.62 127.76 C 119.52 135.30 118.81 143.33 115.02 150.06 C 111.69 155.33 107.48 160.30 101.70 162.97 C 96.52 166.62 90.04 167.09 83.94 167.76 C 78.96 167.74 74.13 166.38 69.44 164.81 C 61.97 160.94 54.77 155.53 51.26 147.64 C 47.03 136.32 50.03 123.35 56.62 113.54 M 91.61 126.29 C 82.96 131.96 83.92 147.28 93.67 151.32 C 101.48 154.43 110.60 148.23 111.74 140.17 C 113.05 134.52 110.31 127.44 104.07 126.35 C 102.39 127.72 100.71 129.11 98.97 130.41 C 98.89 128.69 98.81 126.97 98.71 125.25 C 96.33 125.02 93.64 124.75 91.61 126.29 Z" />
<path fill="#ffffff" opacity="1.00" d=" M 183.85 109.76 C 191.45 105.26 200.73 105.52 209.11 107.21 C 213.61 108.66 217.74 111.03 222.21 112.58 C 223.81 114.37 225.36 116.22 226.94 118.04 C 227.99 119.42 228.99 120.84 230.08 122.19 C 231.82 127.82 235.03 133.06 235.37 139.08 C 235.60 144.18 235.46 149.38 234.24 154.35 C 229.46 163.21 220.72 169.87 210.84 171.99 C 200.62 174.20 189.27 172.63 180.60 166.54 C 173.44 161.58 167.61 154.19 166.31 145.38 C 165.81 140.39 165.97 135.33 167.27 130.47 C 170.30 121.94 176.10 114.48 183.85 109.76 M 184.05 132.13 C 182.50 131.10 181.14 129.14 179.01 129.92 C 174.16 130.96 172.36 136.63 172.03 141.02 C 172.61 145.52 173.86 150.40 177.82 153.11 C 182.22 155.67 188.09 156.17 192.63 153.66 C 196.98 150.25 198.50 144.30 197.97 138.97 C 198.11 135.00 195.41 131.77 192.73 129.17 C 191.47 128.83 190.22 128.45 188.98 128.07 C 187.38 129.48 185.77 130.88 184.05 132.13 Z" />
</g>
<g id="#000000ff">
<path fill="#000000" opacity="1.00" d=" M 110.94 0.00 L 120.91 0.00 C 122.78 0.65 124.70 1.14 126.58 1.75 C 127.05 1.87 127.98 2.12 128.45 2.24 C 129.76 2.73 131.09 3.16 132.41 3.63 C 134.57 4.76 136.61 6.08 138.72 7.30 C 140.00 8.53 141.27 9.79 142.51 11.06 C 145.25 11.05 148.08 11.15 150.60 9.90 C 151.08 9.58 152.04 8.95 152.52 8.64 C 154.43 7.78 156.40 7.03 158.36 6.29 C 160.84 4.92 163.47 3.83 166.34 3.65 C 168.80 3.03 171.39 3.02 173.80 2.16 C 177.60 1.91 181.41 1.92 185.21 2.15 C 187.25 2.87 189.41 3.10 191.51 3.59 C 192.88 4.10 194.24 4.66 195.59 5.23 C 196.10 5.48 197.11 5.97 197.61 6.22 C 202.89 8.74 206.65 13.50 209.35 18.56 C 209.94 20.04 210.03 21.91 211.41 22.94 C 212.98 23.07 214.56 22.97 216.14 22.93 C 217.57 21.77 219.25 22.05 220.79 22.77 C 223.01 22.97 225.26 23.05 227.46 23.50 C 228.84 24.05 230.22 24.62 231.60 25.18 C 233.30 26.22 234.97 27.32 236.70 28.32 C 239.61 31.13 242.82 33.76 244.83 37.33 C 245.27 38.43 245.75 39.51 246.20 40.61 C 246.76 41.55 247.32 42.49 247.88 43.43 C 248.46 45.07 248.97 46.73 249.40 48.41 C 249.89 50.39 249.86 52.50 250.62 54.41 C 251.93 55.34 253.63 54.83 255.12 54.97 C 256.29 54.17 257.50 54.09 258.75 54.71 C 260.70 54.96 262.66 55.14 264.58 55.60 C 265.89 55.93 267.20 56.25 268.50 56.63 C 269.50 56.97 270.50 57.32 271.49 57.68 C 272.46 57.99 273.43 58.32 274.40 58.65 C 274.94 58.90 276.01 59.39 276.55 59.63 C 277.89 60.59 279.15 61.64 280.41 62.70 C 281.85 63.56 283.26 64.48 284.73 65.30 C 286.06 66.59 287.37 67.91 288.61 69.29 C 290.16 71.79 292.32 73.84 293.90 76.32 C 294.36 77.73 294.84 79.13 295.25 80.56 C 296.01 81.55 296.76 82.55 297.49 83.57 C 297.94 85.71 298.06 87.95 299.00 89.97 L 299.00 102.80 C 298.22 104.67 298.01 106.68 297.82 108.68 C 297.44 109.07 296.68 109.86 296.30 110.26 C 295.80 112.05 295.12 113.79 294.41 115.50 C 293.15 117.24 291.74 118.87 290.65 120.72 C 289.09 122.47 287.42 124.14 285.46 125.43 C 283.92 126.62 282.36 127.77 280.67 128.74 C 279.08 129.50 277.30 130.05 276.09 131.40 C 275.67 137.73 276.46 144.11 275.66 150.43 C 274.24 152.20 272.67 153.85 271.07 155.46 C 271.00 155.94 270.86 156.89 270.80 157.37 C 270.28 158.77 269.84 160.19 269.39 161.60 C 268.09 163.38 266.55 164.98 265.00 166.54 C 265.00 167.81 265.00 169.09 265.00 170.38 C 266.44 171.89 267.76 173.53 268.82 175.33 C 269.06 175.85 269.53 176.89 269.76 177.41 C 270.47 179.10 271.11 180.82 271.78 182.53 C 271.93 183.00 272.23 183.93 272.38 184.40 C 272.86 186.32 273.04 188.30 273.31 190.26 C 273.82 191.81 273.92 193.45 273.98 195.08 C 272.87 197.43 273.01 200.08 272.41 202.57 C 272.06 203.82 271.73 205.08 271.33 206.32 C 270.56 208.02 269.93 209.77 269.33 211.54 C 268.11 213.28 266.73 214.90 265.62 216.72 C 264.68 217.73 263.71 218.72 262.74 219.71 C 261.24 220.52 259.81 221.45 258.32 222.29 C 257.22 223.31 256.14 224.34 255.05 225.37 C 255.00 227.81 255.12 230.31 254.35 232.67 C 254.23 233.14 253.99 234.07 253.87 234.54 C 252.65 236.50 251.37 238.43 250.25 240.44 C 249.42 241.84 248.52 243.20 247.69 244.60 C 245.03 248.55 241.35 251.53 237.56 254.36 C 236.55 254.78 235.54 255.22 234.53 255.66 C 232.87 256.73 231.23 257.84 229.55 258.89 C 229.08 258.99 228.13 259.21 227.65 259.31 C 226.01 259.77 224.32 260.02 222.65 260.31 C 220.51 260.88 218.30 261.13 216.21 261.85 C 209.57 261.71 202.65 262.92 196.19 261.17 C 194.59 261.06 193.00 260.99 191.41 260.93 C 190.40 262.06 189.38 263.18 188.38 264.33 C 187.23 266.15 185.83 267.79 184.58 269.53 C 182.08 271.26 180.09 273.62 177.55 275.29 C 175.46 276.32 173.54 277.63 171.57 278.87 C 170.19 279.36 168.81 279.85 167.41 280.27 C 166.43 280.79 165.45 281.32 164.48 281.86 C 164.02 281.96 163.10 282.15 162.64 282.25 C 161.30 282.69 159.93 283.04 158.57 283.40 C 156.07 284.01 153.39 283.87 151.02 285.00 L 120.19 285.00 C 117.69 284.05 115.00 283.98 112.43 283.38 C 111.11 283.05 109.79 282.74 108.49 282.37 C 107.49 282.03 106.49 281.69 105.50 281.34 C 104.13 280.87 102.77 280.36 101.41 279.85 C 99.70 278.79 98.04 277.68 96.30 276.68 C 93.89 274.44 91.55 272.11 89.32 269.69 C 88.48 268.25 87.55 266.87 86.66 265.48 C 85.91 263.85 85.21 262.20 84.60 260.52 C 83.92 258.76 84.39 256.16 82.54 255.12 C 78.48 254.64 74.27 255.61 70.32 254.33 C 69.42 254.13 68.52 253.93 67.62 253.75 C 65.99 253.23 64.33 252.84 62.69 252.34 C 61.00 251.58 59.27 250.93 57.54 250.30 C 56.47 249.95 55.42 249.59 54.38 249.20 C 53.90 249.13 52.95 248.98 52.47 248.90 C 50.79 247.85 49.13 246.74 47.42 245.72 C 45.68 244.76 44.01 243.68 42.29 242.70 C 39.56 240.10 36.89 237.44 34.31 234.71 C 33.32 232.99 32.24 231.33 31.25 229.62 C 30.74 228.56 30.21 227.51 29.68 226.47 C 28.76 224.59 28.05 222.62 27.52 220.60 C 26.51 217.51 28.32 213.16 24.60 211.60 C 22.51 210.99 20.45 210.25 18.45 209.40 C 17.12 208.44 15.85 207.41 14.56 206.40 C 12.57 205.13 10.89 203.44 9.27 201.73 C 8.48 200.27 7.59 198.87 6.77 197.42 C 5.79 195.70 4.68 194.06 3.61 192.40 C 3.27 191.44 2.94 190.48 2.61 189.52 C 2.27 188.21 2.00 186.89 1.72 185.58 C 1.15 183.74 0.73 181.86 0.00 180.09 L 0.00 173.04 C 0.46 171.85 0.92 170.67 1.37 169.48 C 1.82 167.83 2.18 166.15 2.65 164.50 C 2.96 163.50 3.27 162.51 3.59 161.52 C 4.27 160.52 4.98 159.54 5.70 158.56 C 6.56 157.13 7.48 155.75 8.30 154.30 C 9.85 152.65 11.44 151.05 13.07 149.49 C 13.02 147.12 13.03 144.73 12.46 142.42 C 12.23 141.96 11.77 141.04 11.54 140.58 C 10.94 138.19 10.98 135.72 10.96 133.29 C 10.18 132.66 9.40 132.04 8.62 131.43 C 7.38 130.58 6.26 129.56 5.21 128.50 C 4.56 126.09 6.90 124.76 8.21 123.17 C 10.85 123.45 13.07 122.34 13.51 119.58 C 13.78 118.16 13.97 116.72 14.16 115.28 C 15.13 114.36 16.09 113.45 17.07 112.54 C 17.14 109.75 17.58 106.47 14.22 105.56 C 13.61 104.94 13.00 104.31 12.40 103.69 C 10.58 100.88 7.95 98.63 6.68 95.46 C 6.02 94.09 5.34 92.72 4.64 91.37 C 4.30 90.41 3.96 89.46 3.63 88.50 C 3.25 87.20 2.93 85.89 2.59 84.58 C 2.03 82.36 1.97 80.05 1.75 77.78 C 1.20 76.59 1.20 75.40 1.75 74.21 C 1.97 71.94 2.04 69.64 2.58 67.42 C 2.93 66.11 3.25 64.79 3.64 63.49 C 3.96 62.52 4.29 61.55 4.63 60.58 C 4.91 60.08 5.47 59.08 5.75 58.58 C 5.98 58.08 6.43 57.08 6.65 56.57 C 7.76 54.42 9.08 52.38 10.30 50.29 C 12.90 47.56 15.55 44.88 18.31 42.31 C 19.75 41.48 21.13 40.56 22.55 39.69 C 23.52 39.00 24.49 38.32 25.48 37.66 C 27.17 37.08 28.86 36.48 30.51 35.79 C 32.10 34.95 33.75 34.22 35.44 33.59 C 36.76 33.23 38.10 32.93 39.43 32.60 C 42.20 31.88 45.18 32.23 47.86 31.13 C 49.30 31.09 50.74 31.08 52.18 31.11 C 54.33 31.86 56.60 32.13 58.76 32.85 C 60.76 32.96 62.77 33.02 64.77 33.07 C 65.84 31.65 66.86 30.19 67.80 28.67 C 68.40 27.27 69.03 25.87 69.65 24.48 C 70.87 22.74 72.26 21.12 73.36 19.30 C 75.24 17.21 77.24 15.22 79.30 13.31 C 80.74 12.49 82.12 11.56 83.53 10.68 C 84.77 9.82 86.04 9.02 87.33 8.25 C 89.41 7.31 91.46 6.30 93.46 5.20 C 94.79 4.65 96.13 4.11 97.48 3.62 C 99.17 3.16 100.89 2.81 102.58 2.32 C 103.92 2.02 105.27 1.74 106.60 1.39 C 108.06 0.98 109.53 0.58 110.94 0.00 M 78.31 21.30 C 71.03 28.93 67.18 39.14 65.72 49.45 C 65.24 49.51 64.29 49.65 63.81 49.72 C 62.37 46.69 62.00 43.33 61.66 40.03 C 59.09 37.57 55.56 36.65 52.10 36.39 C 42.11 36.08 31.92 38.78 23.83 44.76 C 14.54 50.77 8.77 61.16 7.02 71.92 C 5.20 88.16 14.44 105.05 29.48 111.69 C 29.57 112.49 29.66 113.29 29.76 114.10 C 25.67 114.49 21.87 116.61 20.12 120.45 C 26.05 121.38 31.98 119.54 37.89 120.67 C 39.70 117.40 40.96 113.83 42.39 110.37 C 46.60 102.87 52.36 96.11 60.00 91.98 C 70.69 86.81 82.99 85.61 94.64 87.41 C 113.38 90.94 128.42 107.36 131.00 126.15 C 135.34 126.06 139.68 125.92 144.02 126.07 C 147.75 126.19 151.24 127.70 154.84 128.51 C 156.32 124.77 157.28 120.80 159.37 117.34 C 165.57 106.17 176.62 97.15 189.47 95.28 C 202.02 93.29 215.18 95.49 226.25 101.78 C 231.92 105.27 236.42 110.47 239.77 116.17 C 243.51 122.57 244.94 129.91 247.25 136.86 C 254.88 138.44 262.62 139.56 270.09 141.83 C 272.07 139.44 273.27 136.55 274.45 133.71 C 267.93 134.28 261.35 134.67 254.85 133.66 C 256.35 132.91 257.82 132.13 259.25 131.26 C 267.50 131.10 274.92 127.07 281.61 122.58 C 289.00 116.75 293.57 107.33 293.82 97.94 C 294.47 88.18 290.07 78.60 283.52 71.54 C 275.42 62.89 263.26 56.95 251.33 59.43 C 247.48 64.12 243.64 69.63 237.12 70.53 C 237.73 69.27 238.35 68.02 238.96 66.76 C 241.10 63.86 243.43 60.99 244.56 57.52 C 246.00 48.82 241.67 40.29 236.16 33.84 C 233.58 32.01 230.99 30.17 228.14 28.77 C 223.30 26.08 217.28 26.24 212.20 28.15 C 211.62 29.82 211.05 31.50 210.52 33.19 C 210.12 33.36 209.31 33.71 208.90 33.88 C 208.39 35.31 207.89 36.75 207.41 38.19 C 208.24 31.38 207.46 24.03 203.95 18.02 C 200.09 12.26 193.40 9.10 186.87 7.48 C 180.11 7.13 173.19 6.82 166.58 8.56 C 160.78 10.18 155.14 12.55 150.25 16.10 C 150.99 28.82 148.35 41.30 145.54 53.61 C 147.61 53.86 149.68 54.07 151.75 54.29 C 151.91 57.52 148.49 57.64 146.23 58.62 C 149.30 58.96 152.38 59.22 155.45 59.56 C 153.79 59.89 152.14 60.18 150.48 60.46 C 150.07 60.81 149.27 61.51 148.86 61.86 C 144.49 61.57 139.35 63.26 135.69 60.11 C 135.64 59.59 135.53 58.55 135.47 58.03 C 136.45 57.96 138.41 57.83 139.39 57.76 C 136.21 55.82 132.62 54.74 128.88 55.52 C 131.92 54.53 135.12 54.26 138.24 53.62 C 139.45 53.57 140.58 52.62 140.62 51.36 C 141.92 42.09 143.12 32.79 143.47 23.42 C 143.38 20.17 143.04 16.75 140.55 14.36 C 132.93 6.70 121.44 4.49 111.00 5.34 C 98.75 6.76 86.63 12.01 78.31 21.30 M 56.62 113.54 C 50.03 123.35 47.03 136.32 51.26 147.64 C 54.77 155.53 61.97 160.94 69.44 164.81 C 74.13 166.38 78.96 167.74 83.94 167.76 C 90.04 167.09 96.52 166.62 101.70 162.97 C 107.48 160.30 111.69 155.33 115.02 150.06 C 118.81 143.33 119.52 135.30 118.62 127.76 C 118.09 124.15 116.35 120.91 115.36 117.44 C 113.41 114.39 111.33 111.42 109.18 108.50 L 108.45 108.52 L 108.64 107.72 C 108.26 107.49 107.50 107.03 107.12 106.80 C 104.33 104.07 100.99 101.96 97.35 100.57 C 82.94 95.42 65.05 100.48 56.62 113.54 M 183.85 109.76 C 176.10 114.48 170.30 121.94 167.27 130.47 C 165.97 135.33 165.81 140.39 166.31 145.38 C 167.61 154.19 173.44 161.58 180.60 166.54 C 189.27 172.63 200.62 174.20 210.84 171.99 C 220.72 169.87 229.46 163.21 234.24 154.35 C 235.46 149.38 235.60 144.18 235.37 139.08 C 235.03 133.06 231.82 127.82 230.08 122.19 C 228.99 120.84 227.99 119.42 226.94 118.04 C 225.36 116.22 223.81 114.37 222.21 112.58 C 217.74 111.03 213.61 108.66 209.11 107.21 C 200.73 105.52 191.45 105.26 183.85 109.76 M 16.08 136.67 C 16.99 139.30 17.61 142.19 19.54 144.29 C 20.95 145.89 23.08 146.49 24.94 147.38 C 24.96 147.92 25.01 149.01 25.04 149.55 C 24.39 149.77 23.10 150.22 22.45 150.45 C 16.93 152.93 12.98 158.10 10.45 163.47 C 9.62 165.64 8.77 167.82 8.19 170.08 C 5.77 178.29 8.51 187.06 12.74 194.18 C 17.59 202.16 25.95 207.09 34.41 210.47 C 41.84 213.12 49.90 213.21 57.28 216.06 C 51.53 220.61 43.63 216.82 37.06 218.67 C 38.85 224.92 41.35 231.23 46.15 235.81 C 54.39 243.23 65.11 247.37 75.96 249.05 C 82.32 249.92 88.47 247.05 93.70 243.71 C 100.57 239.78 107.19 235.38 113.23 230.26 C 115.67 227.96 119.09 227.19 121.57 224.93 C 119.95 227.57 119.12 230.67 117.15 233.10 C 112.56 238.22 107.21 242.56 102.00 247.02 C 98.84 249.78 94.82 251.82 92.98 255.79 C 95.46 264.86 101.75 273.21 110.95 276.16 C 119.09 278.39 127.56 279.50 136.01 279.13 C 146.31 279.35 157.05 278.38 166.28 273.43 C 172.94 270.49 178.26 265.41 183.49 260.48 C 186.63 256.66 190.64 253.62 193.46 249.54 C 195.82 246.67 197.01 242.86 200.23 240.75 C 200.50 240.28 201.04 239.34 201.30 238.87 C 201.65 242.84 200.64 246.70 199.61 250.49 C 198.94 251.96 198.27 253.43 197.60 254.91 C 211.62 257.43 226.80 254.05 237.72 244.72 C 243.94 238.95 248.05 231.30 250.71 223.33 C 249.96 221.91 249.23 220.50 248.44 219.12 C 251.15 217.84 253.95 216.80 256.75 215.73 L 256.68 215.46 C 264.49 210.90 267.39 201.28 267.34 192.72 C 268.26 185.90 265.57 178.78 261.95 173.00 C 260.39 170.02 256.60 170.07 253.79 169.13 C 254.25 168.25 254.72 167.37 255.19 166.50 C 260.46 164.34 264.08 159.74 267.20 155.18 C 260.14 155.27 253.11 156.22 246.04 155.85 C 244.06 160.92 242.19 166.29 238.36 170.31 C 233.03 176.05 226.26 180.64 218.62 182.62 C 206.37 186.59 192.89 185.55 180.88 181.20 C 170.60 177.01 161.68 169.12 157.12 158.92 C 155.63 154.93 154.97 150.67 153.30 146.76 C 150.47 145.46 147.06 146.14 144.00 145.96 C 140.08 146.19 136.21 145.21 132.30 145.36 C 130.26 146.13 130.10 148.61 129.35 150.36 C 125.68 162.63 115.30 171.85 103.69 176.57 C 90.87 180.71 76.64 180.90 63.99 176.04 C 58.99 173.55 53.62 171.40 49.65 167.34 C 42.59 160.79 37.56 151.88 36.81 142.17 C 29.88 140.42 23.10 138.01 16.08 136.67 Z" />
<path fill="#000000" opacity="1.00" d=" M 71.85 66.46 C 76.37 64.53 81.19 63.33 86.05 62.66 C 90.32 62.03 94.35 63.78 98.44 64.68 C 90.99 65.38 83.81 67.50 76.80 70.01 C 73.46 71.26 70.07 72.59 66.44 72.50 C 65.75 69.00 69.35 67.68 71.85 66.46 Z" />
<path fill="#000000" opacity="1.00" d=" M 131.78 65.52 C 132.37 65.43 133.55 65.26 134.14 65.18 C 133.22 69.21 131.56 73.03 130.46 77.01 C 131.95 81.99 134.53 87.52 140.00 89.03 C 145.43 90.30 151.17 90.45 156.69 89.57 C 157.09 86.59 156.86 83.59 156.54 80.62 C 157.19 80.35 158.50 79.82 159.16 79.56 C 163.98 82.70 164.97 89.86 161.40 94.32 C 158.28 98.34 154.17 103.42 148.46 102.46 C 150.35 98.97 153.99 96.94 156.14 93.62 C 150.02 94.79 143.70 94.19 137.63 93.04 C 131.38 91.53 127.32 85.53 126.37 79.43 C 124.37 79.42 122.37 79.33 120.38 79.13 C 122.07 76.40 125.44 75.73 127.59 73.54 C 129.35 71.07 130.38 68.19 131.78 65.52 Z" />
<path fill="#000000" opacity="1.00" d=" M 108.75 68.76 C 110.59 67.16 113.06 68.86 115.11 69.11 C 116.61 73.42 114.48 77.79 112.36 81.48 C 111.06 83.65 108.92 86.01 106.10 85.42 C 98.78 84.04 91.60 80.87 83.99 81.75 C 80.50 81.78 77.36 83.45 73.98 84.00 C 71.98 83.82 70.24 82.40 69.10 80.82 C 68.03 77.97 71.07 76.32 73.19 75.29 C 83.07 71.48 94.25 72.72 104.03 76.18 C 105.86 73.87 106.72 70.91 108.75 68.76 Z" />
<path fill="#000000" opacity="1.00" d=" M 172.95 78.98 C 173.13 75.39 176.41 73.43 179.76 73.80 C 181.44 76.70 182.19 79.97 183.16 83.14 C 187.13 83.38 191.03 82.33 194.98 82.03 C 202.82 81.31 210.71 83.18 217.95 86.11 C 221.48 87.39 220.04 91.92 218.03 93.96 C 214.60 93.81 211.68 91.71 208.55 90.52 C 202.86 89.00 196.88 88.64 191.07 89.68 C 186.76 89.97 182.27 91.41 178.04 90.09 C 175.31 87.06 174.42 82.73 172.95 78.98 Z" />
<path fill="#000000" opacity="1.00" d=" M 238.21 90.97 C 240.69 91.73 244.00 92.85 243.86 96.04 C 244.52 98.42 243.04 103.71 239.94 102.23 C 239.76 98.42 239.37 94.63 238.21 90.97 Z" />
<path fill="#000000" opacity="1.00" d=" M 273.63 108.51 C 274.68 108.47 275.73 108.44 276.79 108.42 C 276.66 109.40 276.54 110.39 276.42 111.37 C 275.48 112.36 274.55 113.36 273.62 114.35 C 273.04 114.38 271.87 114.43 271.29 114.45 C 271.34 113.18 271.40 111.91 271.47 110.64 C 272.19 109.93 272.91 109.22 273.63 108.51 Z" />
<path fill="#000000" opacity="1.00" d=" M 91.61 126.29 C 93.64 124.75 96.33 125.02 98.71 125.25 C 98.81 126.97 98.89 128.69 98.97 130.41 C 100.71 129.11 102.39 127.72 104.07 126.35 C 110.31 127.44 113.05 134.52 111.74 140.17 C 110.60 148.23 101.48 154.43 93.67 151.32 C 83.92 147.28 82.96 131.96 91.61 126.29 Z" />
<path fill="#000000" opacity="1.00" d=" M 184.05 132.13 C 185.77 130.88 187.38 129.48 188.98 128.07 C 190.22 128.45 191.47 128.83 192.73 129.17 C 195.41 131.77 198.11 135.00 197.97 138.97 C 198.50 144.30 196.98 150.25 192.63 153.66 C 188.09 156.17 182.22 155.67 177.82 153.11 C 173.86 150.40 172.61 145.52 172.03 141.02 C 172.36 136.63 174.16 130.96 179.01 129.92 C 181.14 129.14 182.50 131.10 184.05 132.13 Z" />
<path fill="#000000" opacity="1.00" d=" M 16.11 171.89 C 17.18 168.88 18.83 165.61 22.16 164.70 C 21.73 168.83 19.99 172.75 20.10 176.95 C 19.98 182.37 22.33 187.47 25.09 192.00 C 28.36 197.13 34.01 199.87 39.39 202.26 C 23.61 204.68 11.11 186.15 16.11 171.89 Z" />
<path fill="#000000" opacity="1.00" d=" M 40.82 167.94 C 41.29 167.95 42.24 167.96 42.71 167.97 C 43.75 171.15 44.18 174.83 46.96 177.08 C 52.81 182.26 60.52 184.59 67.91 186.58 C 74.15 188.43 80.68 187.76 87.07 187.42 C 85.34 188.83 83.22 189.59 81.03 189.91 C 67.82 191.64 53.98 188.58 42.87 181.19 C 38.50 178.46 37.31 171.81 40.82 167.94 Z" />
<path fill="#000000" opacity="1.00" d=" M 146.41 186.63 C 151.53 184.54 157.61 186.93 160.61 191.41 C 165.56 198.51 167.15 207.52 166.70 216.04 C 166.59 221.44 168.14 227.49 164.85 232.28 C 161.61 233.08 158.24 231.55 154.94 231.48 C 150.76 230.77 146.96 232.98 142.97 233.69 C 139.59 233.33 138.03 229.72 137.01 226.92 C 133.94 217.40 133.52 206.72 137.34 197.34 C 138.95 192.85 141.95 188.63 146.41 186.63 M 151.09 203.93 C 155.83 203.72 157.15 197.98 156.30 194.13 C 154.68 192.80 153.07 190.95 150.71 191.68 C 145.86 193.89 146.38 201.94 151.09 203.93 M 140.76 225.41 C 148.36 223.65 156.21 224.61 163.50 227.21 C 164.05 224.49 164.68 221.80 165.14 219.07 C 165.97 214.52 163.99 210.15 163.00 205.80 C 160.01 208.51 157.58 212.97 152.94 212.62 C 147.50 213.23 143.35 208.95 141.41 204.31 C 137.86 210.78 140.58 218.46 140.76 225.41 Z" />
<path fill="#000000" opacity="1.00" d=" M 232.80 226.90 C 235.03 224.25 235.62 219.20 240.07 219.70 C 239.89 221.78 239.71 223.87 239.30 225.92 C 238.49 228.27 236.98 230.33 235.03 231.87 C 228.98 236.88 221.36 239.51 213.79 241.17 C 211.24 242.74 207.49 238.35 210.42 236.74 C 218.67 236.25 227.43 233.53 232.80 226.90 Z" />
<path fill="#000000" opacity="1.00" d=" M 51.69 224.73 C 54.84 224.59 56.44 227.71 58.87 229.16 C 64.21 232.83 71.01 232.08 77.10 231.39 C 71.79 236.21 63.44 237.81 57.21 233.80 C 54.24 231.88 50.61 228.65 51.69 224.73 Z" />
</g>
<g id="#db7a96ff">
<path fill="#db7a96" opacity="1.00" d=" M 78.31 21.30 C 86.63 12.01 98.75 6.76 111.00 5.34 C 121.44 4.49 132.93 6.70 140.55 14.36 C 143.04 16.75 143.38 20.17 143.47 23.42 C 143.12 32.79 141.92 42.09 140.62 51.36 C 140.58 52.62 139.45 53.57 138.24 53.62 C 135.12 54.26 131.92 54.53 128.88 55.52 C 131.17 57.02 133.47 58.52 135.69 60.11 C 139.35 63.26 144.49 61.57 148.86 61.86 C 149.27 61.51 150.07 60.81 150.48 60.46 C 152.14 60.18 153.79 59.89 155.45 59.56 C 152.38 59.22 149.30 58.96 146.23 58.62 C 148.49 57.64 151.91 57.52 151.75 54.29 C 149.68 54.07 147.61 53.86 145.54 53.61 C 148.35 41.30 150.99 28.82 150.25 16.10 C 155.14 12.55 160.78 10.18 166.58 8.56 C 173.19 6.82 180.11 7.13 186.87 7.48 C 193.40 9.10 200.09 12.26 203.95 18.02 C 207.46 24.03 208.24 31.38 207.41 38.19 C 207.89 36.75 208.39 35.31 208.90 33.88 C 209.31 33.71 210.12 33.36 210.52 33.19 C 211.05 31.50 211.62 29.82 212.20 28.15 C 217.28 26.24 223.30 26.08 228.14 28.77 C 230.99 30.17 233.58 32.01 236.16 33.84 C 241.67 40.29 246.00 48.82 244.56 57.52 C 243.43 60.99 241.10 63.86 238.96 66.76 C 238.35 68.02 237.73 69.27 237.12 70.53 C 243.64 69.63 247.48 64.12 251.33 59.43 C 263.26 56.95 275.42 62.89 283.52 71.54 C 290.07 78.60 294.47 88.18 293.82 97.94 C 293.65 99.05 293.47 100.16 293.27 101.28 C 291.91 101.34 290.54 101.39 289.18 101.45 C 285.85 105.61 283.72 110.56 280.48 114.79 C 280.46 117.42 280.19 120.22 281.61 122.58 C 274.92 127.07 267.50 131.10 259.25 131.26 C 257.82 132.13 256.35 132.91 254.85 133.66 C 261.35 134.67 267.93 134.28 274.45 133.71 C 273.27 136.55 272.07 139.44 270.09 141.83 C 262.62 139.56 254.88 138.44 247.25 136.86 C 244.94 129.91 243.51 122.57 239.77 116.17 C 236.42 110.47 231.92 105.27 226.25 101.78 C 215.18 95.49 202.02 93.29 189.47 95.28 C 176.62 97.15 165.57 106.17 159.37 117.34 C 157.28 120.80 156.32 124.77 154.84 128.51 C 151.24 127.70 147.75 126.19 144.02 126.07 C 139.68 125.92 135.34 126.06 131.00 126.15 C 128.42 107.36 113.38 90.94 94.64 87.41 C 82.99 85.61 70.69 86.81 60.00 91.98 C 52.36 96.11 46.60 102.87 42.39 110.37 C 40.96 113.83 39.70 117.40 37.89 120.67 C 31.98 119.54 26.05 121.38 20.12 120.45 C 21.87 116.61 25.67 114.49 29.76 114.10 C 29.66 113.29 29.57 112.49 29.48 111.69 C 14.44 105.05 5.20 88.16 7.02 71.92 C 8.77 61.16 14.54 50.77 23.83 44.76 C 31.92 38.78 42.11 36.08 52.10 36.39 C 55.56 36.65 59.09 37.57 61.66 40.03 C 62.00 43.33 62.37 46.69 63.81 49.72 C 64.29 49.65 65.24 49.51 65.72 49.45 C 67.18 39.14 71.03 28.93 78.31 21.30 M 104.47 11.53 C 103.06 12.89 101.64 14.25 100.21 15.59 C 100.65 17.76 100.67 20.72 103.12 21.65 C 109.29 24.44 116.23 23.62 122.80 23.67 C 126.38 20.10 124.77 13.51 119.90 12.04 C 114.89 10.82 109.60 11.70 104.47 11.53 M 165.91 19.04 C 163.81 20.07 164.41 22.57 164.19 24.46 C 172.13 28.23 181.14 28.61 189.78 28.63 C 190.89 26.77 193.08 24.92 192.45 22.52 C 190.89 19.97 188.04 18.54 185.18 17.99 C 178.87 16.67 171.80 15.74 165.91 19.04 M 133.73 21.58 C 131.17 24.72 129.30 28.73 129.36 32.84 C 129.40 35.40 132.85 34.67 134.55 34.41 C 137.79 31.57 138.47 26.10 136.43 22.38 C 136.06 21.59 134.34 20.81 133.73 21.58 M 231.60 51.00 C 231.48 53.57 231.37 56.71 233.37 58.64 C 234.86 59.08 236.74 59.05 237.63 57.55 C 240.38 53.61 239.71 48.51 238.73 44.10 C 237.16 43.91 235.60 43.65 234.02 43.70 C 231.99 45.54 231.93 48.48 231.60 51.00 M 18.34 87.66 C 21.41 94.31 28.13 99.14 35.48 99.69 C 31.99 97.13 27.83 95.29 25.25 91.69 C 20.05 84.31 19.39 74.22 23.07 66.04 C 24.89 61.45 28.53 57.94 30.71 53.54 C 18.16 59.02 12.97 75.45 18.34 87.66 M 71.85 66.46 C 69.35 67.68 65.75 69.00 66.44 72.50 C 70.07 72.59 73.46 71.26 76.80 70.01 C 83.81 67.50 90.99 65.38 98.44 64.68 C 94.35 63.78 90.32 62.03 86.05 62.66 C 81.19 63.33 76.37 64.53 71.85 66.46 M 131.78 65.52 C 130.38 68.19 129.35 71.07 127.59 73.54 C 125.44 75.73 122.07 76.40 120.38 79.13 C 122.37 79.33 124.37 79.42 126.37 79.43 C 127.32 85.53 131.38 91.53 137.63 93.04 C 143.70 94.19 150.02 94.79 156.14 93.62 C 153.99 96.94 150.35 98.97 148.46 102.46 C 154.17 103.42 158.28 98.34 161.40 94.32 C 164.97 89.86 163.98 82.70 159.16 79.56 C 158.50 79.82 157.19 80.35 156.54 80.62 C 156.86 83.59 157.09 86.59 156.69 89.57 C 151.17 90.45 145.43 90.30 140.00 89.03 C 134.53 87.52 131.95 81.99 130.46 77.01 C 131.56 73.03 133.22 69.21 134.14 65.18 C 133.55 65.26 132.37 65.43 131.78 65.52 M 108.75 68.76 C 106.72 70.91 105.86 73.87 104.03 76.18 C 94.25 72.72 83.07 71.48 73.19 75.29 C 71.07 76.32 68.03 77.97 69.10 80.82 C 70.24 82.40 71.98 83.82 73.98 84.00 C 77.36 83.45 80.50 81.78 83.99 81.75 C 91.60 80.87 98.78 84.04 106.10 85.42 C 108.92 86.01 111.06 83.65 112.36 81.48 C 114.48 77.79 116.61 73.42 115.11 69.11 C 113.06 68.86 110.59 67.16 108.75 68.76 M 145.09 69.24 C 143.76 74.13 141.78 79.87 144.61 84.60 C 145.30 80.77 145.75 76.90 146.09 73.03 C 146.03 71.73 146.74 69.81 145.09 69.24 M 188.43 73.55 C 193.60 74.02 198.93 73.53 203.92 75.25 C 210.92 77.17 217.25 81.05 224.35 82.62 C 220.87 78.70 215.80 76.98 211.07 75.12 C 203.93 72.32 195.86 71.12 188.43 73.55 M 172.95 78.98 C 174.42 82.73 175.31 87.06 178.04 90.09 C 182.27 91.41 186.76 89.97 191.07 89.68 C 196.88 88.64 202.86 89.00 208.55 90.52 C 211.68 91.71 214.60 93.81 218.03 93.96 C 220.04 91.92 221.48 87.39 217.95 86.11 C 210.71 83.18 202.82 81.31 194.98 82.03 C 191.03 82.33 187.13 83.38 183.16 83.14 C 182.19 79.97 181.44 76.70 179.76 73.80 C 176.41 73.43 173.13 75.39 172.95 78.98 M 267.27 73.55 C 271.48 78.17 276.68 82.41 278.40 88.70 C 280.03 92.91 278.20 97.31 277.83 101.58 C 280.15 101.75 282.64 101.03 283.48 98.62 C 284.69 94.23 283.07 89.65 281.23 85.67 C 278.54 79.96 273.81 74.59 267.27 73.55 M 49.93 86.31 C 51.16 82.34 52.75 78.50 54.16 74.60 C 49.29 75.81 46.13 82.32 49.93 86.31 M 238.21 90.97 C 239.37 94.63 239.76 98.42 239.94 102.23 C 243.04 103.71 244.52 98.42 243.86 96.04 C 244.00 92.85 240.69 91.73 238.21 90.97 M 273.63 108.51 C 272.91 109.22 272.19 109.93 271.47 110.64 C 271.40 111.91 271.34 113.18 271.29 114.45 C 271.87 114.43 273.04 114.38 273.62 114.35 C 274.55 113.36 275.48 112.36 276.42 111.37 C 276.54 110.39 276.66 109.40 276.79 108.42 C 275.73 108.44 274.68 108.47 273.63 108.51 Z" />
<path fill="#db7a96" opacity="1.00" d=" M 16.08 136.67 C 23.10 138.01 29.88 140.42 36.81 142.17 C 37.56 151.88 42.59 160.79 49.65 167.34 C 53.62 171.40 58.99 173.55 63.99 176.04 C 76.64 180.90 90.87 180.71 103.69 176.57 C 115.30 171.85 125.68 162.63 129.35 150.36 C 130.10 148.61 130.26 146.13 132.30 145.36 C 136.21 145.21 140.08 146.19 144.00 145.96 C 147.06 146.14 150.47 145.46 153.30 146.76 C 154.97 150.67 155.63 154.93 157.12 158.92 C 161.68 169.12 170.60 177.01 180.88 181.20 C 192.89 185.55 206.37 186.59 218.62 182.62 C 226.26 180.64 233.03 176.05 238.36 170.31 C 242.19 166.29 244.06 160.92 246.04 155.85 C 253.11 156.22 260.14 155.27 267.20 155.18 C 264.08 159.74 260.46 164.34 255.19 166.50 C 254.72 167.37 254.25 168.25 253.79 169.13 C 256.60 170.07 260.39 170.02 261.95 173.00 C 265.57 178.78 268.26 185.90 267.34 192.72 C 264.74 194.48 261.11 195.24 259.59 198.24 C 258.24 200.71 256.97 203.23 255.97 205.86 C 254.93 209.02 255.92 212.35 256.68 215.46 L 256.75 215.73 C 253.95 216.80 251.15 217.84 248.44 219.12 C 249.23 220.50 249.96 221.91 250.71 223.33 C 248.05 231.30 243.94 238.95 237.72 244.72 C 226.80 254.05 211.62 257.43 197.60 254.91 C 198.27 253.43 198.94 251.96 199.61 250.49 C 200.64 246.70 201.65 242.84 201.30 238.87 C 201.04 239.34 200.50 240.28 200.23 240.75 C 197.01 242.86 195.82 246.67 193.46 249.54 C 190.64 253.62 186.63 256.66 183.49 260.48 C 178.26 265.41 172.94 270.49 166.28 273.43 C 157.05 278.38 146.31 279.35 136.01 279.13 C 127.56 279.50 119.09 278.39 110.95 276.16 C 101.75 273.21 95.46 264.86 92.98 255.79 C 94.82 251.82 98.84 249.78 102.00 247.02 C 107.21 242.56 112.56 238.22 117.15 233.10 C 119.12 230.67 119.95 227.57 121.57 224.93 C 119.09 227.19 115.67 227.96 113.23 230.26 C 107.19 235.38 100.57 239.78 93.70 243.71 C 88.47 247.05 82.32 249.92 75.96 249.05 C 65.11 247.37 54.39 243.23 46.15 235.81 C 41.35 231.23 38.85 224.92 37.06 218.67 C 43.63 216.82 51.53 220.61 57.28 216.06 C 49.90 213.21 41.84 213.12 34.41 210.47 C 25.95 207.09 17.59 202.16 12.74 194.18 C 8.51 187.06 5.77 178.29 8.19 170.08 C 8.77 167.82 9.62 165.64 10.45 163.47 C 12.98 158.10 16.93 152.93 22.45 150.45 C 23.10 150.22 24.39 149.77 25.04 149.55 C 25.01 149.01 24.96 147.92 24.94 147.38 C 23.08 146.49 20.95 145.89 19.54 144.29 C 17.61 142.19 16.99 139.30 16.08 136.67 M 16.11 171.89 C 11.11 186.15 23.61 204.68 39.39 202.26 C 34.01 199.87 28.36 197.13 25.09 192.00 C 22.33 187.47 19.98 182.37 20.10 176.95 C 19.99 172.75 21.73 168.83 22.16 164.70 C 18.83 165.61 17.18 168.88 16.11 171.89 M 40.82 167.94 C 37.31 171.81 38.50 178.46 42.87 181.19 C 53.98 188.58 67.82 191.64 81.03 189.91 C 83.22 189.59 85.34 188.83 87.07 187.42 C 80.68 187.76 74.15 188.43 67.91 186.58 C 60.52 184.59 52.81 182.26 46.96 177.08 C 44.18 174.83 43.75 171.15 42.71 167.97 C 42.24 167.96 41.29 167.95 40.82 167.94 M 237.28 184.36 C 235.82 186.89 233.19 188.37 230.63 189.59 C 223.59 192.98 215.78 194.33 208.07 195.15 C 201.38 195.49 194.84 193.62 188.56 191.52 C 200.95 199.56 216.78 198.17 230.40 194.46 C 235.43 192.81 241.55 190.58 243.25 184.98 C 244.38 182.00 242.23 179.18 240.88 176.70 C 239.56 179.20 238.71 181.92 237.28 184.36 M 146.41 186.63 C 141.95 188.63 138.95 192.85 137.34 197.34 C 133.52 206.72 133.94 217.40 137.01 226.92 C 138.03 229.72 139.59 233.33 142.97 233.69 C 146.96 232.98 150.76 230.77 154.94 231.48 C 158.24 231.55 161.61 233.08 164.85 232.28 C 168.14 227.49 166.59 221.44 166.70 216.04 C 167.15 207.52 165.56 198.51 160.61 191.41 C 157.61 186.93 151.53 184.54 146.41 186.63 M 247.10 208.99 C 248.55 206.82 250.31 204.88 252.44 203.36 C 253.78 199.95 254.06 196.27 253.86 192.64 C 249.43 197.08 250.47 203.96 247.10 208.99 M 232.80 226.90 C 227.43 233.53 218.67 236.25 210.42 236.74 C 207.49 238.35 211.24 242.74 213.79 241.17 C 214.93 243.91 216.50 246.45 218.36 248.77 C 230.27 249.13 242.02 238.45 241.71 226.29 C 241.11 226.20 239.91 226.02 239.30 225.92 C 239.71 223.87 239.89 221.78 240.07 219.70 C 235.62 219.20 235.03 224.25 232.80 226.90 M 51.69 224.73 C 50.61 228.65 54.24 231.88 57.21 233.80 C 63.44 237.81 71.79 236.21 77.10 231.39 C 71.01 232.08 64.21 232.83 58.87 229.16 C 56.44 227.71 54.84 224.59 51.69 224.73 M 84.20 234.25 C 83.65 235.34 83.46 236.56 83.17 237.74 C 86.08 237.75 89.18 236.24 89.50 233.02 C 87.78 233.36 85.44 232.62 84.20 234.25 M 147.99 246.49 C 153.25 245.54 158.54 244.84 163.90 244.83 C 159.08 241.75 151.92 242.16 147.99 246.49 M 123.05 264.99 C 117.48 265.16 112.30 262.83 107.43 260.41 C 107.85 261.91 107.60 263.89 109.11 264.86 C 113.94 268.89 120.65 269.64 126.66 268.56 C 130.92 267.17 135.27 264.51 136.56 259.93 C 132.36 262.30 127.95 264.64 123.05 264.99 M 149.81 259.45 C 150.00 261.53 150.67 263.51 151.92 265.19 C 152.84 265.11 154.66 264.95 155.57 264.86 C 154.56 262.25 152.11 260.80 149.81 259.45 Z" />
</g>
<g id="#ffc5d6ff">
<path fill="#ffc5d6" opacity="1.00" d=" M 104.47 11.53 C 109.60 11.70 114.89 10.82 119.90 12.04 C 124.77 13.51 126.38 20.10 122.80 23.67 C 116.23 23.62 109.29 24.44 103.12 21.65 C 100.67 20.72 100.65 17.76 100.21 15.59 C 101.64 14.25 103.06 12.89 104.47 11.53 Z" />
<path fill="#ffc5d6" opacity="1.00" d=" M 165.91 19.04 C 171.80 15.74 178.87 16.67 185.18 17.99 C 188.04 18.54 190.89 19.97 192.45 22.52 C 193.08 24.92 190.89 26.77 189.78 28.63 C 181.14 28.61 172.13 28.23 164.19 24.46 C 164.41 22.57 163.81 20.07 165.91 19.04 Z" />
<path fill="#ffc5d6" opacity="1.00" d=" M 133.73 21.58 C 134.34 20.81 136.06 21.59 136.43 22.38 C 138.47 26.10 137.79 31.57 134.55 34.41 C 132.85 34.67 129.40 35.40 129.36 32.84 C 129.30 28.73 131.17 24.72 133.73 21.58 Z" />
<path fill="#ffc5d6" opacity="1.00" d=" M 231.60 51.00 C 231.93 48.48 231.99 45.54 234.02 43.70 C 235.60 43.65 237.16 43.91 238.73 44.10 C 239.71 48.51 240.38 53.61 237.63 57.55 C 236.74 59.05 234.86 59.08 233.37 58.64 C 231.37 56.71 231.48 53.57 231.60 51.00 Z" />
<path fill="#ffc5d6" opacity="1.00" d=" M 293.27 101.28 C 293.47 100.16 293.65 99.05 293.82 97.94 C 293.57 107.33 289.00 116.75 281.61 122.58 C 280.19 120.22 280.46 117.42 280.48 114.79 C 283.72 110.56 285.85 105.61 289.18 101.45 C 290.54 101.39 291.91 101.34 293.27 101.28 Z" />
<path fill="#ffc5d6" opacity="1.00" d=" M 259.59 198.24 C 261.11 195.24 264.74 194.48 267.34 192.72 C 267.39 201.28 264.49 210.90 256.68 215.46 C 255.92 212.35 254.93 209.02 255.97 205.86 C 256.97 203.23 258.24 200.71 259.59 198.24 Z" />
<path fill="#ffc5d6" opacity="1.00" d=" M 239.30 225.92 C 239.91 226.02 241.11 226.20 241.71 226.29 C 242.02 238.45 230.27 249.13 218.36 248.77 C 216.50 246.45 214.93 243.91 213.79 241.17 C 221.36 239.51 228.98 236.88 235.03 231.87 C 236.98 230.33 238.49 228.27 239.30 225.92 Z" />
</g>
<g id="#0f0a0cff">
<path fill="#0f0a0c" opacity="1.00" d=" M 18.34 87.66 C 12.97 75.45 18.16 59.02 30.71 53.54 C 28.53 57.94 24.89 61.45 23.07 66.04 C 19.39 74.22 20.05 84.31 25.25 91.69 C 27.83 95.29 31.99 97.13 35.48 99.69 C 28.13 99.14 21.41 94.31 18.34 87.66 Z" />
</g>
<g id="#764a57ff">
<path fill="#764a57" opacity="1.00" d=" M 128.88 55.52 C 132.62 54.74 136.21 55.82 139.39 57.76 C 138.41 57.83 136.45 57.96 135.47 58.03 C 135.53 58.55 135.64 59.59 135.69 60.11 C 133.47 58.52 131.17 57.02 128.88 55.52 Z" />
</g>
<g id="#210b09ff">
<path fill="#210b09" opacity="1.00" d=" M 145.09 69.24 C 146.74 69.81 146.03 71.73 146.09 73.03 C 145.75 76.90 145.30 80.77 144.61 84.60 C 141.78 79.87 143.76 74.13 145.09 69.24 Z" />
</g>
<g id="#311116ff">
<path fill="#311116" opacity="1.00" d=" M 188.43 73.55 C 195.86 71.12 203.93 72.32 211.07 75.12 C 215.80 76.98 220.87 78.70 224.35 82.62 C 217.25 81.05 210.92 77.17 203.92 75.25 C 198.93 73.53 193.60 74.02 188.43 73.55 Z" />
</g>
<g id="#250f11ff">
<path fill="#250f11" opacity="1.00" d=" M 267.27 73.55 C 273.81 74.59 278.54 79.96 281.23 85.67 C 283.07 89.65 284.69 94.23 283.48 98.62 C 282.64 101.03 280.15 101.75 277.83 101.58 C 278.20 97.31 280.03 92.91 278.40 88.70 C 276.68 82.41 271.48 78.17 267.27 73.55 Z" />
</g>
<g id="#110908ff">
<path fill="#110908" opacity="1.00" d=" M 49.93 86.31 C 46.13 82.32 49.29 75.81 54.16 74.60 C 52.75 78.50 51.16 82.34 49.93 86.31 Z" />
</g>
<g id="#150d0bff">
<path fill="#150d0b" opacity="1.00" d=" M 237.28 184.36 C 238.71 181.92 239.56 179.20 240.88 176.70 C 242.23 179.18 244.38 182.00 243.25 184.98 C 241.55 190.58 235.43 192.81 230.40 194.46 C 216.78 198.17 200.95 199.56 188.56 191.52 C 194.84 193.62 201.38 195.49 208.07 195.15 C 215.78 194.33 223.59 192.98 230.63 189.59 C 233.19 188.37 235.82 186.89 237.28 184.36 Z" />
</g>
<g id="#d3d3d9ff">
<path fill="#d3d3d9" opacity="1.00" d=" M 151.09 203.93 C 146.38 201.94 145.86 193.89 150.71 191.68 C 153.07 190.95 154.68 192.80 156.30 194.13 C 157.15 197.98 155.83 203.72 151.09 203.93 Z" />
</g>
<g id="#1f120cff">
<path fill="#1f120c" opacity="1.00" d=" M 247.10 208.99 C 250.47 203.96 249.43 197.08 253.86 192.64 C 254.06 196.27 253.78 199.95 252.44 203.36 C 250.31 204.88 248.55 206.82 247.10 208.99 Z" />
</g>
<g id="#b70538ff">
<path fill="#b70538" opacity="1.00" d=" M 140.76 225.41 C 140.58 218.46 137.86 210.78 141.41 204.31 C 143.35 208.95 147.50 213.23 152.94 212.62 C 157.58 212.97 160.01 208.51 163.00 205.80 C 163.99 210.15 165.97 214.52 165.14 219.07 C 164.68 221.80 164.05 224.49 163.50 227.21 C 156.21 224.61 148.36 223.65 140.76 225.41 Z" />
</g>
<g id="#220d0dff">
<path fill="#220d0d" opacity="1.00" d=" M 84.20 234.25 C 85.44 232.62 87.78 233.36 89.50 233.02 C 89.18 236.24 86.08 237.75 83.17 237.74 C 83.46 236.56 83.65 235.34 84.20 234.25 Z" />
</g>
<g id="#321c20ff">
<path fill="#321c20" opacity="1.00" d=" M 147.99 246.49 C 151.92 242.16 159.08 241.75 163.90 244.83 C 158.54 244.84 153.25 245.54 147.99 246.49 Z" />
</g>
<g id="#1b1014ff">
<path fill="#1b1014" opacity="1.00" d=" M 123.05 264.99 C 127.95 264.64 132.36 262.30 136.56 259.93 C 135.27 264.51 130.92 267.17 126.66 268.56 C 120.65 269.64 113.94 268.89 109.11 264.86 C 107.60 263.89 107.85 261.91 107.43 260.41 C 112.30 262.83 117.48 265.16 123.05 264.99 Z" />
</g>
<g id="#4a232aff">
<path fill="#4a232a" opacity="1.00" d=" M 149.81 259.45 C 152.11 260.80 154.56 262.25 155.57 264.86 C 154.66 264.95 152.84 265.11 151.92 265.19 C 150.67 263.51 150.00 261.53 149.81 259.45 Z" />
</g>
</svg>
